<?xml version="1.0" encoding="utf-8"?>
<!-- Generator: Adobe Illustrator 23.0.3, SVG Export Plug-In . SVG Version: 6.00 Build 0)  -->
<svg version="1.1" id="Layer_1" xmlns="http://www.w3.org/2000/svg" xmlns:xlink="http://www.w3.org/1999/xlink" x="0px" y="0px"
	 viewBox="-244.8 611.4 433.9 183.3" style="enable-background:new -244.8 611.4 433.9 183.3;" xml:space="preserve">
<style type="text/css">
	.st0{fill:url(#SVGID_1_);}
	.st1{fill:url(#SVGID_2_);}
	.st2{fill:url(#SVGID_3_);}
	.st3{fill:url(#SVGID_4_);}
	.st4{fill:url(#SVGID_5_);}
	.st5{fill:url(#SVGID_6_);}
	.st6{fill:url(#SVGID_7_);}
	.st7{fill:url(#SVGID_8_);}
	.st8{fill:url(#SVGID_9_);}
	.st9{fill:url(#SVGID_10_);}
	.st10{fill:url(#SVGID_11_);}
	.st11{fill:url(#SVGID_12_);}
	.st12{fill:url(#SVGID_13_);}
	.st13{fill:url(#SVGID_14_);}
	.st14{fill:url(#SVGID_15_);}
	.st15{fill:url(#SVGID_16_);}
	.st16{fill:url(#SVGID_17_);}
	.st17{fill:url(#SVGID_18_);}
	.st18{fill:url(#SVGID_19_);}
	.st19{fill:url(#SVGID_20_);}
	.st20{fill:url(#SVGID_21_);}
</style>
<g>
	<linearGradient id="SVGID_1_" gradientUnits="userSpaceOnUse" x1="-178.35" y1="611.4" x2="-178.35" y2="794.7">
		<stop  offset="0" style="stop-color:#FF5799"/>
		<stop  offset="4.672110e-03" style="stop-color:#FF5798"/>
		<stop  offset="0.2506" style="stop-color:#F96B64"/>
		<stop  offset="0.4812" style="stop-color:#F57B3B"/>
		<stop  offset="0.69" style="stop-color:#F2861E"/>
		<stop  offset="0.8699" style="stop-color:#F08D0C"/>
		<stop  offset="1" style="stop-color:#EF8F06"/>
	</linearGradient>
	<path class="st0" d="M-178.4,611.4l-66.4,91.6l66.4,91.7l66.5-91.7L-178.4,611.4z M-220.9,715.8l6.8-9.3l-1.8-2.5l3.8-5.2l-3-4.1
		l7.9-17l3.3-25.1l18.1,18.5h7.8h7.7l18.1-18.5l3.3,25.1l7.9,17l-2.9,4.1l3.8,5.2l-1.8,2.5l6.7,9.3L-178,769L-220.9,715.8z"/>
	<g id="Layer_1_1_">
		<linearGradient id="SVGID_2_" gradientUnits="userSpaceOnUse" x1="-192.3" y1="700.9" x2="-192.3" y2="707.9">
			<stop  offset="0" style="stop-color:#FF5799"/>
			<stop  offset="4.672110e-03" style="stop-color:#FF5798"/>
			<stop  offset="0.2506" style="stop-color:#F96B64"/>
			<stop  offset="0.4812" style="stop-color:#F57B3B"/>
			<stop  offset="0.69" style="stop-color:#F2861E"/>
			<stop  offset="0.8699" style="stop-color:#F08D0C"/>
			<stop  offset="1" style="stop-color:#EF8F06"/>
		</linearGradient>
		<polygon class="st1" points="-191.7,706.1 -187.5,707.9 -191.7,702.8 -197.1,700.9 		"/>
		<linearGradient id="SVGID_3_" gradientUnits="userSpaceOnUse" x1="-163.8" y1="700.9" x2="-163.8" y2="707.9">
			<stop  offset="0" style="stop-color:#FF5799"/>
			<stop  offset="4.672110e-03" style="stop-color:#FF5798"/>
			<stop  offset="0.2506" style="stop-color:#F96B64"/>
			<stop  offset="0.4812" style="stop-color:#F57B3B"/>
			<stop  offset="0.69" style="stop-color:#F2861E"/>
			<stop  offset="0.8699" style="stop-color:#F08D0C"/>
			<stop  offset="1" style="stop-color:#EF8F06"/>
		</linearGradient>
		<polygon class="st2" points="-164.4,706.1 -168.6,707.9 -164.4,702.8 -159,700.9 		"/>
		<linearGradient id="SVGID_4_" gradientUnits="userSpaceOnUse" x1="-178.05" y1="709.3" x2="-178.05" y2="745.9">
			<stop  offset="0" style="stop-color:#FF5799"/>
			<stop  offset="4.672110e-03" style="stop-color:#FF5798"/>
			<stop  offset="0.2506" style="stop-color:#F96B64"/>
			<stop  offset="0.4812" style="stop-color:#F57B3B"/>
			<stop  offset="0.69" style="stop-color:#F2861E"/>
			<stop  offset="0.8699" style="stop-color:#F08D0C"/>
			<stop  offset="1" style="stop-color:#EF8F06"/>
		</linearGradient>
		<polygon class="st3" points="-178,745.9 -167.1,740.4 -157.2,718.4 -147.7,709.3 -147.7,709.3 -158.6,716.8 -168.6,738.5 
			-178,743.5 -187.5,738.5 -197.5,716.8 -208.4,709.3 -208.4,709.3 -198.9,718.4 -188.9,740.4 		"/>
		<linearGradient id="SVGID_5_" gradientUnits="userSpaceOnUse" x1="-178.05" y1="732.3" x2="-178.05" y2="739.6">
			<stop  offset="0" style="stop-color:#FF5799"/>
			<stop  offset="4.672110e-03" style="stop-color:#FF5798"/>
			<stop  offset="0.2506" style="stop-color:#F96B64"/>
			<stop  offset="0.4812" style="stop-color:#F57B3B"/>
			<stop  offset="0.69" style="stop-color:#F2861E"/>
			<stop  offset="0.8699" style="stop-color:#F08D0C"/>
			<stop  offset="1" style="stop-color:#EF8F06"/>
		</linearGradient>
		<polygon class="st4" points="-175.4,732.3 -178,732.3 -180.6,732.3 -181.5,733.7 -178,739.6 -174.6,733.7 		"/>
	</g>
</g>
<g>
	<g>
		<linearGradient id="SVGID_6_" gradientUnits="userSpaceOnUse" x1="18.7598" y1="661.7039" x2="18.7598" y2="739.0984">
			<stop  offset="0" style="stop-color:#FF5799"/>
			<stop  offset="4.672110e-03" style="stop-color:#FF5798"/>
			<stop  offset="0.2506" style="stop-color:#F96B64"/>
			<stop  offset="0.4812" style="stop-color:#F57B3B"/>
			<stop  offset="0.69" style="stop-color:#F2861E"/>
			<stop  offset="0.8699" style="stop-color:#F08D0C"/>
			<stop  offset="1" style="stop-color:#EF8F06"/>
		</linearGradient>
		<path class="st5" d="M-78.6,690.7h-6.9l-3.9-15c-0.1-0.5-0.4-1.6-0.7-3.3c-0.3-1.7-0.5-2.8-0.6-3.4c-0.1,0.7-0.3,1.8-0.6,3.4
			s-0.6,2.7-0.7,3.3l-3.8,15h-6.9l-7.3-28.6h6l3.7,15.6c0.6,2.9,1.1,5.4,1.4,7.5c0.1-0.7,0.3-1.9,0.5-3.4c0.3-1.6,0.5-2.8,0.8-3.6
			l4.2-16h5.7l4.2,16c0.2,0.7,0.4,1.8,0.7,3.3s0.5,2.7,0.6,3.8c0.1-1,0.3-2.3,0.6-3.8c0.3-1.5,0.5-2.7,0.8-3.7l3.6-15.6h6
			L-78.6,690.7z"/>
		<linearGradient id="SVGID_7_" gradientUnits="userSpaceOnUse" x1="18.7598" y1="661.7039" x2="18.7598" y2="739.0984">
			<stop  offset="0" style="stop-color:#FF5799"/>
			<stop  offset="4.672110e-03" style="stop-color:#FF5798"/>
			<stop  offset="0.2506" style="stop-color:#F96B64"/>
			<stop  offset="0.4812" style="stop-color:#F57B3B"/>
			<stop  offset="0.69" style="stop-color:#F2861E"/>
			<stop  offset="0.8699" style="stop-color:#F08D0C"/>
			<stop  offset="1" style="stop-color:#EF8F06"/>
		</linearGradient>
		<path class="st6" d="M-41.8,676.4c0,4.7-1.2,8.4-3.5,10.9s-5.7,3.8-10.1,3.8s-7.7-1.3-10.1-3.8s-3.5-6.2-3.5-10.9
			s1.2-8.4,3.5-10.9c2.4-2.5,5.7-3.8,10.1-3.8c4.4,0,7.7,1.3,10.1,3.8S-41.8,671.7-41.8,676.4z M-62.7,676.4c0,3.2,0.6,5.6,1.8,7.2
			s3,2.4,5.4,2.4c4.8,0,7.2-3.2,7.2-9.6c0-6.4-2.4-9.6-7.2-9.6c-2.4,0-4.2,0.8-5.4,2.4C-62,670.8-62.7,673.2-62.7,676.4z"/>
		<linearGradient id="SVGID_8_" gradientUnits="userSpaceOnUse" x1="18.7598" y1="661.7039" x2="18.7598" y2="739.0984">
			<stop  offset="0" style="stop-color:#FF5799"/>
			<stop  offset="4.672110e-03" style="stop-color:#FF5798"/>
			<stop  offset="0.2506" style="stop-color:#F96B64"/>
			<stop  offset="0.4812" style="stop-color:#F57B3B"/>
			<stop  offset="0.69" style="stop-color:#F2861E"/>
			<stop  offset="0.8699" style="stop-color:#F08D0C"/>
			<stop  offset="1" style="stop-color:#EF8F06"/>
		</linearGradient>
		<path class="st7" d="M-35.9,690.7v-28.6h6.1v23.6h11.6v5H-35.9z"/>
		<linearGradient id="SVGID_9_" gradientUnits="userSpaceOnUse" x1="18.7598" y1="661.7039" x2="18.7598" y2="739.0984">
			<stop  offset="0" style="stop-color:#FF5799"/>
			<stop  offset="4.672110e-03" style="stop-color:#FF5798"/>
			<stop  offset="0.2506" style="stop-color:#F96B64"/>
			<stop  offset="0.4812" style="stop-color:#F57B3B"/>
			<stop  offset="0.69" style="stop-color:#F2861E"/>
			<stop  offset="0.8699" style="stop-color:#F08D0C"/>
			<stop  offset="1" style="stop-color:#EF8F06"/>
		</linearGradient>
		<path class="st8" d="M3,662.2h6.1l-9.7,28.6h-6.6l-9.7-28.6h6.1l5.4,17c0.3,1,0.6,2.2,0.9,3.5s0.5,2.3,0.6,2.8
			c0.1-1.2,0.6-3.3,1.5-6.3L3,662.2z"/>
		<linearGradient id="SVGID_10_" gradientUnits="userSpaceOnUse" x1="18.7598" y1="661.7039" x2="18.7598" y2="739.0984">
			<stop  offset="0" style="stop-color:#FF5799"/>
			<stop  offset="4.672110e-03" style="stop-color:#FF5798"/>
			<stop  offset="0.2506" style="stop-color:#F96B64"/>
			<stop  offset="0.4812" style="stop-color:#F57B3B"/>
			<stop  offset="0.69" style="stop-color:#F2861E"/>
			<stop  offset="0.8699" style="stop-color:#F08D0C"/>
			<stop  offset="1" style="stop-color:#EF8F06"/>
		</linearGradient>
		<path class="st9" d="M29.1,690.7H12.7v-28.6h16.4v5H18.8v6.3h9.7v5h-9.7v7.4h10.4V690.7z"/>
		<linearGradient id="SVGID_11_" gradientUnits="userSpaceOnUse" x1="18.7598" y1="661.7039" x2="18.7598" y2="739.0984">
			<stop  offset="0" style="stop-color:#FF5799"/>
			<stop  offset="4.672110e-03" style="stop-color:#FF5798"/>
			<stop  offset="0.2506" style="stop-color:#F96B64"/>
			<stop  offset="0.4812" style="stop-color:#F57B3B"/>
			<stop  offset="0.69" style="stop-color:#F2861E"/>
			<stop  offset="0.8699" style="stop-color:#F08D0C"/>
			<stop  offset="1" style="stop-color:#EF8F06"/>
		</linearGradient>
		<path class="st10" d="M60.4,690.7h-7.7l-12.4-21.6h-0.2c0.2,3.8,0.4,6.5,0.4,8.2v13.4h-5.4v-28.6h7.6l12.4,21.4h0.1
			c-0.2-3.7-0.3-6.3-0.3-7.9v-13.5h5.4V690.7z"/>
		<linearGradient id="SVGID_12_" gradientUnits="userSpaceOnUse" x1="18.7598" y1="661.7039" x2="18.7598" y2="739.0984">
			<stop  offset="0" style="stop-color:#FF5799"/>
			<stop  offset="4.672110e-03" style="stop-color:#FF5798"/>
			<stop  offset="0.2506" style="stop-color:#F96B64"/>
			<stop  offset="0.4812" style="stop-color:#F57B3B"/>
			<stop  offset="0.69" style="stop-color:#F2861E"/>
			<stop  offset="0.8699" style="stop-color:#F08D0C"/>
			<stop  offset="1" style="stop-color:#EF8F06"/>
		</linearGradient>
		<path class="st11" d="M-94.3,738.7l-6.9-22.4h-0.2c0.2,4.6,0.4,7.6,0.4,9.1v13.3h-5.4v-28.6h8.2l6.8,21.8h0.1l7.2-21.8h8.2v28.6
			h-5.6v-13.5c0-0.6,0-1.4,0-2.2s0.1-3,0.3-6.6h-0.2l-7.4,22.4H-94.3z"/>
		<linearGradient id="SVGID_13_" gradientUnits="userSpaceOnUse" x1="18.7598" y1="661.7039" x2="18.7598" y2="739.0984">
			<stop  offset="0" style="stop-color:#FF5799"/>
			<stop  offset="4.672110e-03" style="stop-color:#FF5798"/>
			<stop  offset="0.2506" style="stop-color:#F96B64"/>
			<stop  offset="0.4812" style="stop-color:#F57B3B"/>
			<stop  offset="0.69" style="stop-color:#F2861E"/>
			<stop  offset="0.8699" style="stop-color:#F08D0C"/>
			<stop  offset="1" style="stop-color:#EF8F06"/>
		</linearGradient>
		<path class="st12" d="M-45.4,710.2v18.5c0,2.1-0.5,4-1.4,5.5c-0.9,1.6-2.3,2.8-4.1,3.7c-1.8,0.8-3.9,1.3-6.3,1.3
			c-3.7,0-6.5-0.9-8.6-2.8s-3-4.5-3-7.7v-18.4h6v17.5c0,2.2,0.4,3.8,1.3,4.8c0.9,1,2.4,1.5,4.4,1.5c2,0,3.4-0.5,4.3-1.6
			c0.9-1,1.3-2.7,1.3-4.9v-17.4H-45.4z"/>
		<linearGradient id="SVGID_14_" gradientUnits="userSpaceOnUse" x1="18.7598" y1="661.7039" x2="18.7598" y2="739.0984">
			<stop  offset="0" style="stop-color:#FF5799"/>
			<stop  offset="4.672110e-03" style="stop-color:#FF5798"/>
			<stop  offset="0.2506" style="stop-color:#F96B64"/>
			<stop  offset="0.4812" style="stop-color:#F57B3B"/>
			<stop  offset="0.69" style="stop-color:#F2861E"/>
			<stop  offset="0.8699" style="stop-color:#F08D0C"/>
			<stop  offset="1" style="stop-color:#EF8F06"/>
		</linearGradient>
		<path class="st13" d="M-38.5,738.7v-28.6h6.1v23.6h11.6v5H-38.5z"/>
		<linearGradient id="SVGID_15_" gradientUnits="userSpaceOnUse" x1="18.7598" y1="661.7039" x2="18.7598" y2="739.0984">
			<stop  offset="0" style="stop-color:#FF5799"/>
			<stop  offset="4.672110e-03" style="stop-color:#FF5798"/>
			<stop  offset="0.2506" style="stop-color:#F96B64"/>
			<stop  offset="0.4812" style="stop-color:#F57B3B"/>
			<stop  offset="0.69" style="stop-color:#F2861E"/>
			<stop  offset="0.8699" style="stop-color:#F08D0C"/>
			<stop  offset="1" style="stop-color:#EF8F06"/>
		</linearGradient>
		<path class="st14" d="M-4.8,738.7h-6.1v-23.5h-7.8v-5H2.9v5h-7.8V738.7z"/>
		<linearGradient id="SVGID_16_" gradientUnits="userSpaceOnUse" x1="18.7598" y1="661.7039" x2="18.7598" y2="739.0984">
			<stop  offset="0" style="stop-color:#FF5799"/>
			<stop  offset="4.672110e-03" style="stop-color:#FF5798"/>
			<stop  offset="0.2506" style="stop-color:#F96B64"/>
			<stop  offset="0.4812" style="stop-color:#F57B3B"/>
			<stop  offset="0.69" style="stop-color:#F2861E"/>
			<stop  offset="0.8699" style="stop-color:#F08D0C"/>
			<stop  offset="1" style="stop-color:#EF8F06"/>
		</linearGradient>
		<path class="st15" d="M7.3,738.7v-28.6h6.1v28.6H7.3z"/>
		<linearGradient id="SVGID_17_" gradientUnits="userSpaceOnUse" x1="18.7598" y1="661.7039" x2="18.7598" y2="739.0984">
			<stop  offset="0" style="stop-color:#FF5799"/>
			<stop  offset="4.672110e-03" style="stop-color:#FF5798"/>
			<stop  offset="0.2506" style="stop-color:#F96B64"/>
			<stop  offset="0.4812" style="stop-color:#F57B3B"/>
			<stop  offset="0.69" style="stop-color:#F2861E"/>
			<stop  offset="0.8699" style="stop-color:#F08D0C"/>
			<stop  offset="1" style="stop-color:#EF8F06"/>
		</linearGradient>
		<path class="st16" d="M32.6,738.7l-6.9-22.4h-0.2c0.2,4.6,0.4,7.6,0.4,9.1v13.3h-5.4v-28.6h8.2l6.8,21.8h0.1l7.2-21.8h8.2v28.6
			h-5.6v-13.5c0-0.6,0-1.4,0-2.2s0.1-3,0.3-6.6h-0.2l-7.4,22.4H32.6z"/>
		<linearGradient id="SVGID_18_" gradientUnits="userSpaceOnUse" x1="18.7598" y1="661.7039" x2="18.7598" y2="739.0984">
			<stop  offset="0" style="stop-color:#FF5799"/>
			<stop  offset="4.672110e-03" style="stop-color:#FF5798"/>
			<stop  offset="0.2506" style="stop-color:#F96B64"/>
			<stop  offset="0.4812" style="stop-color:#F57B3B"/>
			<stop  offset="0.69" style="stop-color:#F2861E"/>
			<stop  offset="0.8699" style="stop-color:#F08D0C"/>
			<stop  offset="1" style="stop-color:#EF8F06"/>
		</linearGradient>
		<path class="st17" d="M74.7,738.7H58.3v-28.6h16.4v5H64.3v6.3H74v5h-9.7v7.4h10.4V738.7z"/>
		<linearGradient id="SVGID_19_" gradientUnits="userSpaceOnUse" x1="18.7598" y1="661.7039" x2="18.7598" y2="739.0984">
			<stop  offset="0" style="stop-color:#FF5799"/>
			<stop  offset="4.672110e-03" style="stop-color:#FF5798"/>
			<stop  offset="0.2506" style="stop-color:#F96B64"/>
			<stop  offset="0.4812" style="stop-color:#F57B3B"/>
			<stop  offset="0.69" style="stop-color:#F2861E"/>
			<stop  offset="0.8699" style="stop-color:#F08D0C"/>
			<stop  offset="1" style="stop-color:#EF8F06"/>
		</linearGradient>
		<path class="st18" d="M104.4,724.2c0,4.7-1.3,8.3-4,10.8s-6.5,3.8-11.6,3.8h-8.1v-28.6h9c4.7,0,8.3,1.2,10.9,3.7
			S104.4,719.7,104.4,724.2z M98.1,724.3c0-6.1-2.7-9.2-8.1-9.2h-3.2v18.6h2.6C95.1,733.7,98.1,730.6,98.1,724.3z"/>
		<linearGradient id="SVGID_20_" gradientUnits="userSpaceOnUse" x1="18.7598" y1="661.7039" x2="18.7598" y2="739.0984">
			<stop  offset="0" style="stop-color:#FF5799"/>
			<stop  offset="4.672110e-03" style="stop-color:#FF5798"/>
			<stop  offset="0.2506" style="stop-color:#F96B64"/>
			<stop  offset="0.4812" style="stop-color:#F57B3B"/>
			<stop  offset="0.69" style="stop-color:#F2861E"/>
			<stop  offset="0.8699" style="stop-color:#F08D0C"/>
			<stop  offset="1" style="stop-color:#EF8F06"/>
		</linearGradient>
		<path class="st19" d="M110.3,738.7v-28.6h6.1v28.6H110.3z"/>
		<linearGradient id="SVGID_21_" gradientUnits="userSpaceOnUse" x1="18.7598" y1="661.7039" x2="18.7598" y2="739.0984">
			<stop  offset="0" style="stop-color:#FF5799"/>
			<stop  offset="4.672110e-03" style="stop-color:#FF5798"/>
			<stop  offset="0.2506" style="stop-color:#F96B64"/>
			<stop  offset="0.4812" style="stop-color:#F57B3B"/>
			<stop  offset="0.69" style="stop-color:#F2861E"/>
			<stop  offset="0.8699" style="stop-color:#F08D0C"/>
			<stop  offset="1" style="stop-color:#EF8F06"/>
		</linearGradient>
		<path class="st20" d="M141,738.7l-2.1-6.8h-10.4l-2.1,6.8h-6.5L130,710h7.4l10.1,28.7H141z M137.5,726.8c-1.9-6.2-3-9.6-3.2-10.4
			s-0.4-1.4-0.5-1.9c-0.4,1.7-1.7,5.8-3.7,12.4H137.5z"/>
	</g>
</g>
</svg>
