<?xml version="1.0" encoding="utf-8"?>
<!-- Generator: Adobe Illustrator 23.0.3, SVG Export Plug-In . SVG Version: 6.00 Build 0)  -->
<svg version="1.1" id="Layer_1" xmlns="http://www.w3.org/2000/svg" xmlns:xlink="http://www.w3.org/1999/xlink" x="0px" y="0px"
	 viewBox="0 0 172.5 54.5" style="enable-background:new 0 0 172.5 54.5;" xml:space="preserve">
<style type="text/css">
	.st0{fill:#111111;}
	.st1{fill:#F89925;}
</style>
<title>logo</title>
<path class="st0" d="M10.5,45.4h22.4v8.5H0V2.7h10.5V45.4z"/>
<path class="st0" d="M78.8,29.4c0.1,4.6-0.8,9.1-2.7,13.3c-1.6,3.6-4.3,6.7-7.7,8.8C65,53.5,61,54.6,57,54.5c-4,0.1-7.9-1-11.4-3.1
	c-3.4-2.1-6.1-5.1-7.7-8.7c-1.9-4.1-2.8-8.6-2.8-13.1v-2.5c-0.1-4.6,0.8-9.1,2.7-13.3c1.6-3.6,4.3-6.7,7.7-8.8C49,2.9,52.9,1.9,57,2
	c4-0.1,7.9,1,11.4,3.1c3.4,2.1,6.1,5.2,7.7,8.8c1.9,4.2,2.8,8.7,2.7,13.3L78.8,29.4z M68.1,27.1c0-5.4-1-9.4-2.9-12.2
	c-1.8-2.7-4.9-4.3-8.2-4.2c-3.3-0.1-6.4,1.4-8.2,4.1c-1.9,2.8-2.9,6.8-2.9,12.1v2.5c0,5.2,1,9.3,2.9,12.2c1.8,2.8,5,4.5,8.3,4.3
	c3.3,0.1,6.4-1.4,8.2-4.2c1.9-2.8,2.9-6.8,2.9-12.2V27.1z"/>
<path class="st0" d="M127,47.4c-2.2,2.5-4.9,4.3-8.1,5.3c-3.7,1.3-7.6,1.9-11.5,1.9c-4.1,0.1-8.1-0.9-11.7-2.9
	c-3.4-1.9-6.1-4.9-7.7-8.4c-1.9-4.1-2.9-8.5-2.8-13v-3.5c-0.1-4.6,0.8-9.1,2.6-13.3c1.6-3.6,4.2-6.5,7.4-8.6c3.4-2,7.4-3.1,11.4-3
	c6.1,0,10.8,1.4,14.2,4.3c3.4,2.9,5.5,7.1,6.1,12.6h-10.3c-0.5-2.9-1.5-5.1-3.1-6.4c-1.9-1.4-4.2-2.1-6.6-2c-3.2-0.2-6.3,1.3-8.2,4
	c-1.9,2.7-2.8,6.7-2.8,12v3.3c0,5.4,1,9.4,3,12.2s5,4.1,9,4.1c4,0,6.8-0.8,8.5-2.5v-8.8h-9.6V27h20.1L127,47.4z"/>
<path class="st1" d="M140.1,29.9H134V0h6.1V29.9z"/>
<path class="st1" d="M167.7,5h-9.1v24.9h-6.1V5h-9V0h24.3L167.7,5z"/>
<path class="st1" d="M165.8,27c0-0.9,0.3-1.7,0.9-2.3c0.7-0.6,1.5-0.9,2.4-0.9c0.9,0,1.8,0.3,2.4,0.9c1.3,1.3,1.3,3.3,0,4.6
	c0,0,0,0,0,0c-1.4,1.2-3.4,1.2-4.8,0C166.1,28.6,165.8,27.8,165.8,27z"/>
</svg>
