<?xml version="1.0" encoding="utf-8"?>
<!-- Generator: Adobe Illustrator 23.0.3, SVG Export Plug-In . SVG Version: 6.00 Build 0)  -->
<svg version="1.1" id="Layer_1" xmlns="http://www.w3.org/2000/svg" xmlns:xlink="http://www.w3.org/1999/xlink" x="0px" y="0px"
	 viewBox="0 0 412.6 117.7" style="enable-background:new 0 0 412.6 117.7;" xml:space="preserve">
<style type="text/css">
	.st0{fill:#FFFFFF;}
	.st1{fill:#2F4072;}
</style>
<g>
	<g>
		<line class="st0" x1="14.7" y1="22.4" x2="79.3" y2="93.4"/>
		<rect x="44.5" y="9.9" transform="matrix(0.7396 -0.6731 0.6731 0.7396 -26.714 46.7308)" class="st1" width="5" height="96"/>
	</g>
	<g>
		<path class="st1" d="M33.1,99c-3.1-1.5-7.7-4.5-12-10.6c22.8-22.8,45.6-45.6,68.5-68.5C85.7,16.7,69,3.7,44.7,5.1
			c-19.5,1.1-32.7,11-37.2,14.7c1.8,1.7,3.6,3.4,5.4,5.1c1.5-1.8,13.4-15.6,33.2-15.2C64.9,10.1,75.9,23,77.5,24.9
			C54.7,47.7,31.9,70.5,9.1,93.4c4,3.9,13.3,11.8,27.2,14.4c25.8,4.9,45.4-12.2,47.9-14.4c-1.6-1.7-3.2-3.3-4.8-5
			C64.7,101.3,46.5,105.6,33.1,99z"/>
		<path class="st0" d="M48.4,5c22.3,0,37.5,11.9,41.2,14.9C66.8,42.7,43.9,65.5,21.1,88.4c4.2,6.1,8.9,9.1,12,10.6
			c4.2,2.1,8.9,3.1,13.8,3.1c10.7,0,22.4-4.8,32.5-13.7c1.6,1.7,3.2,3.3,4.8,5c-2.2,2-17.4,15.3-38.5,15.3c-3,0-6.1-0.3-9.4-0.9
			c-14-2.7-23.2-10.5-27.2-14.4c22.8-22.8,45.6-45.6,68.5-68.5C75.9,23,64.9,10.1,46.1,9.7c-0.3,0-0.6,0-0.9,0
			C26,9.7,14.4,23.2,13,24.9c-1.8-1.7-3.6-3.4-5.4-5.1c4.5-3.7,17.7-13.6,37.2-14.7C46,5,47.2,5,48.4,5 M48.4,0L48.4,0
			c-1.3,0-2.7,0-4,0.1C24.9,1.3,11,10.5,4.4,16L0,19.6l4.1,3.9l2.3,2.2l3.1,2.9l3.9,3.6l3.4-4.1c1.9-2.2,12-13.4,28.4-13.4
			c0.3,0,0.5,0,0.8,0c11.7,0.3,20.1,6.1,24.5,10.1L28.3,67L5.5,89.8l-3.6,3.6L5.6,97c5.9,5.7,15.8,13.1,29.8,15.8
			c3.4,0.6,6.9,1,10.3,1c22.4,0,38.8-13.8,41.9-16.6l3.8-3.5l-3.6-3.7l-4.8-5l-3.3-3.4L76,84.6c-8.9,7.9-19.6,12.4-29.2,12.4
			c-4.2,0-8.1-0.9-11.5-2.5c-2.8-1.4-5.3-3.3-7.5-5.7l19.7-19.7l45.6-45.6l3.9-3.9L92.8,16C86.9,11.2,70.8,0,48.4,0L48.4,0z"/>
	</g>
</g>
<g>
	<g>
		<path class="st1" d="M161.4,70.7c-0.5,2.3-3,11.6-3.9,14.3h-43.7v-2.5c8.4-0.6,9-1.4,9-8.8V38.2c0-8-1-8.5-7.7-9.1v-2.5h27.5
			c8.5,0,12-0.1,13-0.2c0.1,2.3,0.5,9,0.8,13.8l-2.7,0.5c-0.8-3.1-1.7-5-2.7-6.8c-1.4-3-3.5-3.6-8.9-3.6h-8.5c-2.8,0-3,0.3-3,2.9
			v19.9h10c6.8,0,7.2-1.3,8.3-7.5h2.8V64h-2.8c-1.2-6.5-1.9-7.4-8.4-7.4h-9.9v17.9c0,6.3,2,6.8,6.5,6.9h8.4c5.5,0,6.4-0.8,8.4-3.1
			c1.7-1.9,3.6-5.6,4.9-8.3L161.4,70.7z"/>
		<path class="st1" d="M206.1,48c-4.9,0.6-5.5,1.3-7.8,6.8c-3,7.2-8.1,19.2-12.8,31.3h-2.6c-3.8-10.3-8.2-21.1-12.4-31.6
			c-2.1-5.2-2.8-5.8-7.5-6.5v-2.4h18.4V48c-5,0.6-5.1,1.3-3.7,5.1c2.3,6.2,6,15.7,8.5,22c3.2-8,6.2-15.4,8.2-21.1
			c1.5-4.4,1.3-5.4-4.7-6v-2.4h16.4V48z"/>
		<path class="st1" d="M240.3,77.4c-5.8,7.2-12.1,8.7-14.9,8.7c-11,0-17.6-9-17.6-19.3c0-6.1,2.2-11.8,5.8-15.8
			c3.8-4.2,8.7-6.6,13.4-6.6c7.8,0,13.8,6.7,13.8,13.9c-0.1,1.8-0.4,2.6-1.8,3c-1.8,0.4-13.3,1.2-24,1.5c-0.3,12.1,7.1,17,13.5,17
			c3.7,0,7.1-1.5,10.4-4.6L240.3,77.4z M224.8,47.9c-4.1,0-8.2,3.9-9.4,11.2c5,0,10.1,0,15.4-0.3c1.6,0,2.2-0.5,2.2-1.8
			C233,52.2,229.8,47.9,224.8,47.9z"/>
		<path class="st1" d="M266.8,85.1h-20.7v-2.5c5.7-0.5,6.2-1,6.2-6.8V57c0-5.9-0.4-6.2-5.6-6.8v-2.3c4.4-0.7,8.5-1.8,12.7-3.7
			c0,3,0,6.9,0,9.9c3.1-4.7,6.9-9.6,11.4-9.6c3.3,0,5.2,2.1,5.2,4.3c0,2.1-1.4,4-3.1,5c-0.9,0.5-1.6,0.5-2.3-0.2
			c-1.4-1.4-2.4-2.3-4-2.3c-1.9,0-5.2,2.8-7.2,7.4v16.9c0,5.9,0.4,6.4,7.4,6.9V85.1z"/>
		<path class="st1" d="M312.6,77.4c-5.8,7.2-12.1,8.7-14.9,8.7c-11,0-17.6-9-17.6-19.3c0-6.1,2.2-11.8,5.8-15.8
			c3.8-4.2,8.7-6.6,13.4-6.6c7.8,0,13.8,6.7,13.8,13.9c-0.1,1.8-0.4,2.6-1.8,3c-1.8,0.4-13.3,1.2-24,1.5c-0.3,12.1,7.1,17,13.5,17
			c3.7,0,7.1-1.5,10.4-4.6L312.6,77.4z M297.2,47.9c-4.1,0-8.2,3.9-9.4,11.2c5,0,10.1,0,15.4-0.3c1.6,0,2.2-0.5,2.2-1.8
			C305.4,52.2,302.2,47.9,297.2,47.9z"/>
		<path class="st1" d="M344.3,85.1v-2.5c5.2-0.5,5.8-1.2,5.8-7.3V60.4c0-6.3-2.3-10.5-8.2-10.5c-3.7,0-7.2,2.2-10,4.7v21.1
			c0,6.2,0.5,6.4,5.8,6.9v2.5h-19.4v-2.5c5.9-0.6,6.5-1,6.5-6.9V57.1c0-5.9-0.6-6.1-5.5-6.9v-2.3c4.4-0.7,8.8-1.9,12.6-3.6
			c0,2.1,0,5,0,7.1c1.8-1.3,3.8-2.6,6.1-4.1c2.5-1.6,4.9-2.7,7.5-2.7c7.2,0,11.7,5.3,11.7,14v17.1c0,6.1,0.5,6.4,5.8,6.9v2.5H344.3z
			"/>
		<path class="st1" d="M412.1,82.8c-1.9,0.4-8.6,1.4-13.9,3.3c0-1.9,0-4,0-5.8c-1.6,1-4,2.3-5.6,3.2c-3.6,2.1-6,2.6-7.1,2.6
			c-7.2,0-16.7-7.2-16.7-19.8c0-12.5,11-21.9,23.3-21.9c1.3,0,4.2,0.2,6.1,1V32.2c0-5.8-0.6-5.9-7-6.5v-2.3
			c4.5-0.6,10.8-1.9,14.1-3.1c0,3.3,0,7.3,0,11v43.3c0,4.7,0.6,5.3,4,5.5l2.9,0.2V82.8z M398.1,52.6c-2.1-3.2-5.9-4.6-9.4-4.6
			c-4.3,0-12,2.9-12,15.8c0,10.9,6.7,16.6,12.5,16.7c3.2,0,6.8-1.6,8.9-3.2V52.6z"/>
	</g>
</g>
</svg>
