<?xml version="1.0" encoding="utf-8"?>
<!-- Generator: Adobe Illustrator 23.0.3, SVG Export Plug-In . SVG Version: 6.00 Build 0)  -->
<svg version="1.1" id="Layer_1" focusable="false" xmlns="http://www.w3.org/2000/svg" xmlns:xlink="http://www.w3.org/1999/xlink"
	 x="0px" y="0px" viewBox="0 0 512 512" style="enable-background:new 0 0 512 512;" xml:space="preserve">
<style type="text/css">
	.st0{fill:#FFFFFF;}
</style>
<path class="st0" d="M315.7,156H271c-4.2,0-8.2,1.6-11.2,4.4l-51.2,46.9c-0.1,0.1-0.1,0.2-0.2,0.2c-8.6,8.1-8.5,21.1-1.1,29.2
	c6.6,7.2,20.5,9.2,29.2,1.4c0.1-0.1,0.2-0.1,0.2-0.1l41.6-38.1c3.4-3.1,8.7-2.9,11.8,0.5c3.1,3.4,2.9,8.6-0.5,11.8L276,224.5
	l75.8,61.5c1.5,1.2,2.9,2.6,4.1,4V189.3l-28.4-28.4C324.4,157.8,320.1,156,315.7,156L315.7,156z M372.6,189.4V306
	c0,9.2,7.4,16.7,16.7,16.7h33.3V189.4H372.6z M397.6,306c-4.6,0-8.3-3.7-8.3-8.3s3.7-8.3,8.3-8.3s8.3,3.7,8.3,8.3
	S402.2,306,397.6,306z M89.4,322.6h33.3c9.2,0,16.7-7.4,16.7-16.7V189.4h-50V322.6z M114.4,289.3c4.6,0,8.3,3.7,8.3,8.3
	s-3.7,8.3-8.3,8.3s-8.3-3.7-8.3-8.3C106.1,293,109.8,289.3,114.4,289.3z M341.3,299l-77.7-63.1L248,250.2
	c-15.5,14.1-39.2,12.8-52.9-2.3c-14-15.3-12.9-39,2.3-52.9l42.6-39h-43.6c-4.4,0-8.6,1.8-11.8,4.9L156,189.3v116.6h9.5l47.1,42.6
	c14.3,11.6,35.2,9.4,46.9-4.8l0.1-0.1l9.3,8.1c8.3,6.8,20.5,5.5,27.2-2.8l16.3-20.1l2.8,2.3c7.1,5.8,17.6,4.7,23.4-2.4l4.9-6.1
	C349.6,315.3,348.5,304.9,341.3,299L341.3,299z"/>
</svg>
