<?xml version="1.0" encoding="utf-8"?>
<!-- Generator: Adobe Illustrator 23.0.3, SVG Export Plug-In . SVG Version: 6.00 Build 0)  -->
<svg version="1.1" id="Layer_1" focusable="false" xmlns="http://www.w3.org/2000/svg" xmlns:xlink="http://www.w3.org/1999/xlink"
	 x="0px" y="0px" viewBox="0 0 512 512" style="enable-background:new 0 0 512 512;" xml:space="preserve">
<style type="text/css">
	.st0{fill:#FFFFFF;}
</style>
<path class="st0" d="M353.3,328.9L314.3,290c-1.8-1.8-4.1-2.7-6.6-2.7h-6.4c10.8-13.8,17.2-31.1,17.2-50c0-44.9-36.4-81.2-81.2-81.2
	S156,192.4,156,237.2s36.4,81.2,81.2,81.2c18.9,0,36.2-6.4,50-17.2v6.4c0,2.5,1,4.9,2.7,6.6l38.9,38.9c3.7,3.7,9.6,3.7,13.2,0
	l11.1-11.1C356.9,338.5,356.9,332.6,353.3,328.9z M237.3,287.2c-27.6,0-50-22.3-50-50c0-27.6,22.3-50,50-50c27.6,0,50,22.3,50,50
	C287.3,264.9,264.9,287.2,237.3,287.2z"/>
</svg>
