<?xml version="1.0" encoding="utf-8"?>
<!-- Generator: Adobe Illustrator 23.0.3, SVG Export Plug-In . SVG Version: 6.00 Build 0)  -->
<svg version="1.1" id="Layer_1" focusable="false" xmlns="http://www.w3.org/2000/svg" xmlns:xlink="http://www.w3.org/1999/xlink"
	 x="0px" y="0px" viewBox="0 0 512 512" style="enable-background:new 0 0 512 512;" xml:space="preserve">
<style type="text/css">
	.st0{fill:#FFFFFF;}
</style>
<path class="st0" d="M256,172.1c46.4,0,83.9,37.5,83.9,83.9c0,46.4-37.5,83.9-83.9,83.9c-46.4,0-83.9-37.5-83.9-83.9
	C172.1,209.6,209.6,172.1,256,172.1 M256,156c-55.2,0-100,44.8-100,100s44.8,100,100,100s100-44.8,100-100S311.2,156,256,156z
	 M256,178.6c-42.8,0-77.4,34.7-77.4,77.4s34.7,77.4,77.4,77.4s77.4-34.7,77.4-77.4S298.8,178.6,256,178.6z M256,196.3
	c8,0,14.5,6.5,14.5,14.5s-6.5,14.5-14.5,14.5s-14.5-6.5-14.5-14.5S248,196.3,256,196.3z M303.5,235.8c-11.6,2.7-22.4,5.1-33.1,6.4
	c0.3,40.7,5,49.6,10.1,62.8c1.5,3.7-0.4,7.9-4.1,9.4c-3.7,1.5-7.9-0.4-9.4-4.1c-3.5-9-6.9-16.4-9-31.7H254
	c-2.1,15.3-5.5,22.7-9,31.7c-1.5,3.7-5.7,5.6-9.4,4.1c-3.7-1.5-5.6-5.7-4.1-9.4c5.1-13.1,9.8-22,10.1-62.8
	c-10.7-1.2-21.5-3.6-33.1-6.4c-3.5-0.8-5.6-4.3-4.8-7.8c0.8-3.5,4.3-5.6,7.8-4.8c39,9.2,50.1,9.2,89,0c3.5-0.8,6.9,1.3,7.8,4.8
	C309.1,231.6,306.9,235,303.5,235.8z"/>
</svg>
